<?xml version="1.0" standalone="no"?>
<!DOCTYPE svg PUBLIC "-//W3C//DTD SVG 20010904//EN"
 "http://www.w3.org/TR/2001/REC-SVG-20010904/DTD/svg10.dtd">
<svg version="1.0" xmlns="http://www.w3.org/2000/svg"
 width="589.000000pt" height="589.000000pt" viewBox="0 0 589.000000 589.000000"
 preserveAspectRatio="xMidYMid meet">

<g transform="translate(0.000000,589.000000) scale(0.100000,-0.100000)"
fill="#000000" stroke="none">
<path d="M2730 5559 c-133 -12 -343 -54 -485 -95 -435 -128 -808 -349 -1131
-669 -219 -217 -378 -433 -504 -685 -262 -522 -348 -1093 -250 -1670 169 -994
910 -1820 1889 -2104 678 -197 1433 -112 2041 229 805 452 1325 1282 1369
2183 25 506 -70 949 -298 1387 -375 724 -1075 1242 -1873 1389 -241 44 -514
57 -758 35z m727 -287 c10 -6 6 -45 -20 -173 l-33 -164 -40 3 c-21 2 -43 7
-48 12 -7 8 26 278 39 318 5 13 82 17 102 4z m-236 -98 c35 -18 40 -43 27
-136 l-11 -78 -38 0 c-21 0 -40 4 -43 9 -3 4 -36 6 -73 4 -59 -5 -72 -2 -96
17 -58 46 -9 101 98 108 46 3 65 8 65 18 0 21 -47 28 -92 15 -35 -11 -42 -10
-59 5 -26 24 -24 31 14 43 73 23 158 21 208 -5z m-343 -1 c17 -15 22 -35 27
-109 l7 -91 -48 -7 c-26 -3 -49 -5 -50 -3 -2 2 -6 35 -10 74 -8 86 -14 98 -45
89 -45 -11 -47 -16 -37 -94 6 -41 8 -75 6 -77 -2 -2 -24 -5 -48 -7 l-45 -3
-12 60 c-6 33 -15 81 -18 106 l-6 46 47 12 c30 8 50 9 57 2 6 -6 21 -4 41 5
44 19 110 18 134 -3z m921 -24 c23 -7 41 -17 41 -22 0 -6 -19 -59 -42 -119
-22 -59 -39 -110 -37 -111 2 -2 39 -18 82 -37 43 -18 80 -37 83 -42 3 -5 -1
-20 -10 -33 l-16 -24 -88 39 c-49 21 -108 44 -131 51 -26 8 -41 18 -41 28 0
36 94 291 106 287 7 -3 30 -10 53 -17z m-1309 -42 c34 -17 62 -74 55 -112 -12
-65 -93 -114 -188 -115 -54 0 -62 3 -93 34 -41 41 -44 78 -11 127 41 61 174
98 237 66z m-340 -108 c0 -27 -24 -50 -65 -60 -24 -6 -50 -18 -57 -27 -11 -13
-10 -14 7 -9 112 33 159 31 176 -7 24 -52 -41 -114 -156 -150 -69 -22 -86 -17
-76 21 6 23 14 29 50 35 44 7 97 35 87 45 -3 3 -37 -2 -76 -12 -87 -21 -120
-12 -120 33 0 35 21 65 66 92 62 39 164 63 164 39z m-270 -135 c15 -37 13 -42
-20 -59 -45 -23 -48 -55 -11 -109 17 -24 31 -48 31 -53 0 -10 -62 -53 -76 -53
-10 1 -124 155 -124 169 0 16 72 70 86 64 7 -2 17 5 23 16 11 19 55 50 74 51
4 0 12 -12 17 -26z m2307 -4 c61 -35 103 -91 103 -137 0 -41 -40 -88 -82 -97
-48 -10 -123 20 -173 68 -65 61 -71 121 -20 172 36 35 104 33 172 -6z m-1036
-180 c155 -16 261 -38 394 -81 132 -43 335 -139 411 -194 27 -19 79 -57 116
-83 197 -141 399 -383 516 -618 107 -215 156 -384 186 -649 12 -100 12 -149 2
-295 -13 -176 -18 -201 -83 -409 -140 -446 -472 -832 -898 -1046 -663 -332
-1433 -227 -2004 273 -209 183 -412 497 -499 773 -85 265 -109 605 -62 849 6
30 15 85 20 123 10 69 78 243 152 392 51 101 142 238 223 335 368 441 962 686
1526 630z m1292 -17 c68 -34 137 -116 137 -162 0 -23 -56 -90 -102 -123 l-29
-20 -30 28 c-16 15 -29 33 -30 38 0 6 -21 25 -47 41 -60 39 -89 87 -74 121 17
35 74 33 134 -5 25 -16 49 -34 52 -40 11 -18 26 -13 26 8 0 20 -39 54 -82 70
-24 9 -43 53 -30 66 7 6 37 -2 75 -22z m-2789 -4 c14 -11 26 -26 26 -34 0 -7
-30 -38 -66 -70 -43 -38 -62 -61 -55 -68 14 -14 76 27 98 64 10 17 23 27 31
24 8 -3 18 -5 23 -5 19 0 8 -37 -23 -74 -76 -93 -178 -123 -230 -68 -15 15
-29 39 -33 53 -13 54 45 142 118 178 53 26 77 26 111 0z m-305 -179 c10 -5 24
-22 30 -38 17 -42 1 -96 -55 -179 -50 -74 -51 -63 15 -112 l23 -17 -28 -42
c-19 -28 -35 -41 -46 -38 -31 7 -248 151 -248 164 0 19 76 129 130 186 73 79
129 103 179 76z m3370 -86 c17 -19 29 -39 26 -44 -3 -5 9 -19 26 -32 56 -41
95 -130 71 -163 -10 -15 -136 -95 -149 -95 -5 0 -22 17 -37 38 l-27 37 37 30
c20 17 49 41 66 55 l30 25 -22 28 c-12 15 -28 27 -36 27 -8 0 -40 -20 -72 -45
l-57 -45 -32 38 c-18 20 -31 40 -30 44 4 14 150 138 163 138 6 0 26 -16 43
-36z m-369 -34 c0 -5 -4 -10 -9 -10 -6 0 -13 5 -16 10 -3 6 1 10 9 10 9 0 16
-4 16 -10z m-3526 -800 l17 -60 64 0 c35 0 66 -4 69 -9 4 -5 -16 -26 -44 -46
-27 -20 -50 -43 -50 -51 0 -8 9 -39 19 -69 11 -30 16 -55 12 -55 -4 0 -30 16
-57 35 -27 19 -53 35 -59 35 -6 0 -32 -16 -60 -35 -27 -20 -51 -31 -53 -25 -2
6 3 31 12 57 9 26 16 52 16 59 0 7 -23 29 -50 49 -55 41 -56 60 -3 52 19 -4
48 -3 64 0 26 5 32 13 47 64 9 33 22 59 28 59 6 0 19 -27 28 -60z m4342 0 l17
-60 63 0 c34 0 65 -4 68 -9 4 -5 -13 -24 -36 -42 -24 -18 -47 -36 -52 -40 -4
-4 -1 -30 9 -58 26 -79 18 -89 -37 -47 -26 20 -52 36 -59 36 -6 0 -34 -16 -61
-36 -27 -20 -51 -34 -54 -31 -5 5 11 62 33 123 2 5 -21 28 -52 49 -31 21 -52
42 -48 46 4 4 37 9 72 11 l64 3 14 45 c8 25 16 51 18 58 9 27 25 9 41 -48z
m-3813 -1802 c19 -29 55 -80 80 -113 42 -55 44 -61 30 -77 -9 -10 -21 -18 -28
-18 -6 0 -35 32 -64 70 -30 39 -56 70 -60 70 -11 -1 -41 -27 -41 -36 0 -5 21
-35 45 -68 46 -61 47 -69 15 -86 -17 -9 -26 -1 -71 55 l-51 65 -43 -30 c-24
-17 -48 -30 -54 -30 -14 0 -64 76 -59 90 4 12 238 160 254 160 6 0 27 -24 47
-52z m3404 -37 c-9 -16 -17 -32 -17 -35 0 -3 17 -17 37 -30 34 -24 38 -24 55
-9 10 9 18 22 18 29 0 16 48 30 60 18 13 -13 -25 -93 -63 -131 -39 -42 -71
-42 -125 -2 -40 29 -44 30 -61 15 -22 -20 -35 -20 -52 0 -10 13 -10 19 0 37
12 18 11 22 -5 34 -17 13 -17 15 4 59 l23 46 25 -17 c14 -9 27 -15 28 -13 1 2
13 18 26 36 l23 34 21 -21 c20 -20 20 -22 3 -50z m-221 -86 c4 -17 1 -32 -10
-44 -20 -22 -20 -35 0 -52 14 -11 19 -9 36 14 19 27 21 27 39 11 24 -21 24
-32 2 -57 -17 -18 -16 -21 47 -77 l65 -58 -34 -36 c-19 -20 -39 -36 -44 -36
-4 0 -33 23 -62 51 -47 44 -57 50 -70 39 -14 -11 -19 -10 -37 8 -17 17 -19 24
-9 36 9 11 9 16 0 21 -6 4 -17 22 -25 40 -17 43 -4 91 37 133 38 39 56 41 65
7z m-3059 -187 l33 -32 -56 -57 c-61 -62 -64 -80 -18 -101 25 -11 29 -9 71 40
25 29 50 52 56 52 7 0 27 -13 46 -29 l33 -28 -72 -81 c-39 -45 -77 -82 -84
-82 -13 0 -69 54 -66 65 0 3 -17 20 -40 36 -44 32 -80 83 -80 112 0 18 116
136 135 137 5 0 24 -14 42 -32z m3023 -163 l64 -65 -29 -30 c-16 -16 -32 -30
-36 -30 -4 0 -32 -25 -63 -55 -46 -46 -61 -55 -90 -55 -26 0 -38 6 -46 21 -17
30 -5 62 45 123 42 52 46 73 12 60 -9 -3 -28 -23 -43 -45 -28 -41 -66 -51 -72
-19 -7 41 121 160 173 160 12 0 47 -26 85 -65z m-2746 -90 c19 -19 46 -37 61
-41 34 -8 85 -60 85 -86 0 -23 -78 -158 -96 -165 -13 -5 -84 37 -84 49 0 4 18
33 40 64 22 32 40 63 40 70 0 8 -13 20 -30 29 l-29 15 -43 -60 c-23 -33 -49
-60 -57 -60 -9 0 -31 13 -49 28 l-34 28 67 82 c36 45 72 82 80 82 8 0 30 -16
49 -35z m2456 -36 c13 -29 12 -32 -18 -56 -18 -13 -32 -31 -32 -39 0 -7 14
-36 30 -62 17 -27 30 -54 30 -59 0 -10 -79 -58 -85 -52 -12 13 -105 176 -105
184 0 11 58 50 74 50 5 0 24 15 42 33 17 17 36 32 42 32 5 0 15 -14 22 -31z
m-291 -51 c13 -24 50 -93 83 -155 l59 -112 -30 -15 c-16 -9 -37 -16 -45 -16
-8 0 -37 -14 -63 -30 -66 -42 -121 -42 -157 1 -46 55 -46 103 -1 158 15 16 42
36 60 43 41 14 41 18 14 77 -15 35 -17 46 -7 52 7 4 22 15 33 23 28 21 29 21
54 -26z m-1649 -66 c0 -18 -109 -294 -121 -306 -10 -11 -79 18 -79 34 0 5 -10
10 -22 10 -35 1 -103 35 -122 61 -9 13 -16 41 -16 62 0 31 7 46 34 73 29 29
40 34 83 34 26 -1 59 -7 73 -15 36 -21 49 -18 60 10 31 80 25 74 69 62 23 -6
41 -17 41 -25z m474 -156 c49 -29 85 -85 86 -133 0 -44 -31 -102 -69 -125 -30
-20 -49 -23 -121 -22 -96 1 -141 16 -188 64 -52 52 -54 132 -5 191 41 48 76
60 169 56 67 -3 89 -8 128 -31z m940 18 c13 -35 6 -54 -28 -68 -18 -8 -37 -19
-41 -26 -4 -7 1 -39 10 -71 11 -36 15 -63 9 -69 -5 -5 -27 -12 -50 -15 l-41
-7 -27 102 c-15 56 -26 103 -24 105 2 2 21 10 42 19 29 12 41 13 47 5 5 -8 8
-8 14 1 7 11 60 39 76 40 4 0 10 -7 13 -16z m-265 -100 c21 -17 31 -35 31 -54
0 -32 -7 -36 -82 -45 -67 -8 -90 -20 -68 -35 22 -14 55 -12 94 7 29 13 38 14
51 3 25 -21 18 -36 -27 -56 -28 -13 -65 -19 -111 -19 -65 0 -70 2 -98 33 -74
82 1 191 133 192 36 0 54 -6 77 -26z m-269 -10 c0 -23 -80 -207 -94 -216 -6
-4 -30 -8 -54 -8 l-43 0 -50 105 c-27 57 -49 109 -49 115 0 7 18 10 47 8 l47
-3 25 -62 c14 -35 28 -63 32 -63 3 0 13 29 23 64 20 68 24 71 89 75 19 1 27
-4 27 -15z"/>
<path d="M3093 5053 c-26 -5 -30 -18 -9 -26 21 -8 56 4 56 19 0 14 -6 15 -47
7z"/>
<path d="M2368 5048 c-32 -11 -42 -36 -29 -71 17 -44 79 -47 102 -5 8 14 7 28
-1 48 -13 33 -34 40 -72 28z"/>
<path d="M4096 4798 c-22 -32 -20 -64 6 -82 29 -21 51 -20 71 2 24 26 21 68
-5 86 -31 22 -54 20 -72 -6z"/>
<path d="M2830 3711 l-25 -7 -3 -246 c-3 -281 -13 -255 102 -264 159 -14 239
47 238 181 -1 117 -52 179 -142 172 -25 -2 -53 -7 -62 -11 -16 -7 -18 -1 -18
72 0 44 -3 87 -6 96 -6 17 -40 19 -84 7z m181 -268 c8 -9 14 -39 14 -70 0 -45
-4 -58 -24 -74 -13 -10 -36 -19 -52 -19 l-29 0 0 84 c0 58 4 86 13 89 26 11
65 6 78 -10z"/>
<path d="M3260 3713 c-14 -3 -28 -10 -32 -16 -10 -16 -10 -460 1 -475 18 -29
158 -42 222 -21 89 30 132 121 110 231 -14 66 -47 104 -97 114 -35 6 -76 2
-106 -11 -16 -6 -18 1 -18 89 l0 96 -27 -1 c-16 -1 -39 -4 -53 -6z m180 -272
c5 -11 10 -40 10 -66 0 -56 -32 -95 -80 -95 l-30 0 0 84 c0 91 2 94 57 95 22
1 36 -5 43 -18z"/>
<path d="M1980 3440 l0 -240 165 0 165 0 0 50 0 50 -105 0 -105 0 0 190 0 190
-60 0 -60 0 0 -240z"/>
<path d="M2467 3536 c-52 -19 -73 -40 -93 -92 -21 -55 -14 -131 17 -181 43
-70 155 -93 239 -50 69 35 85 64 85 157 0 85 -12 112 -68 154 -34 25 -127 32
-180 12z m115 -93 c13 -12 18 -31 18 -74 0 -66 -16 -89 -60 -89 -38 0 -60 33
-60 90 0 25 7 56 16 68 18 26 60 29 86 5z"/>
<path d="M3600 3527 c0 -18 106 -300 122 -326 18 -30 -5 -51 -57 -51 -41 0
-44 -2 -55 -36 -16 -47 -5 -57 62 -58 67 0 115 25 145 80 22 37 133 368 133
393 0 8 -18 11 -57 9 l-57 -3 -24 -85 c-13 -47 -27 -88 -30 -92 -4 -4 -22 34
-39 85 l-31 92 -56 3 c-43 2 -56 0 -56 -11z"/>
<path d="M3600 2851 l-45 -6 -3 -80 -3 -80 -48 -1 c-106 -1 -174 -74 -174
-185 0 -122 53 -177 159 -165 32 3 64 7 69 7 6 1 29 -2 53 -5 38 -6 43 -4 50
16 4 13 7 124 6 248 -3 274 -2 260 -11 258 -5 0 -28 -4 -53 -7z m-50 -336 c0
-82 -1 -86 -25 -95 -33 -13 -71 2 -78 32 -11 38 -8 77 8 108 16 32 27 38 68
39 l27 1 0 -85z"/>
<path d="M2356 2818 c-52 -14 -118 -81 -134 -137 -17 -55 -18 -158 -2 -207 31
-96 103 -145 215 -145 43 0 80 7 114 22 28 12 51 23 51 26 0 2 -9 22 -20 43
l-20 40 -36 -15 c-20 -8 -55 -15 -78 -15 -78 0 -116 50 -116 153 0 118 66 171
170 134 26 -9 50 -17 54 -17 3 0 15 18 26 39 23 46 19 51 -53 75 -53 18 -112
19 -171 4z"/>
<path d="M2821 2675 c-25 -11 -36 -12 -42 -4 -4 8 -23 9 -58 4 l-51 -7 2 -166
3 -167 50 0 50 0 3 100 c3 118 13 135 77 135 l42 0 6 52 c4 28 5 53 4 54 -11
12 -59 11 -86 -1z"/>
<path d="M3065 2681 c-75 -19 -114 -71 -122 -160 -10 -110 53 -189 154 -192
56 -3 115 10 140 29 l23 17 -20 33 c-16 25 -25 32 -38 27 -75 -31 -141 -16
-142 33 0 9 27 12 100 12 l100 0 0 54 c0 60 -28 113 -70 133 -36 17 -90 23
-125 14z m79 -97 c9 -22 2 -27 -39 -29 -40 -2 -53 9 -35 30 17 20 66 19 74 -1z"/>
<path d="M4380 4505 c24 -25 50 -33 50 -16 0 13 -41 41 -59 41 -10 0 -8 -7 9
-25z"/>
<path d="M1532 4584 c-12 -8 -22 -22 -22 -30 0 -12 6 -11 30 6 28 20 39 40 22
40 -4 0 -18 -7 -30 -16z"/>
<path d="M1234 4376 c-11 -8 -34 -32 -49 -52 l-28 -37 29 -24 c16 -12 32 -23
36 -23 3 0 20 19 37 42 34 46 41 92 15 102 -20 8 -16 8 -40 -8z"/>
<path d="M4401 1184 c-37 -47 -22 -62 19 -19 17 18 21 28 13 36 -7 7 -17 2
-32 -17z"/>
<path d="M3865 938 c-11 -6 -23 -16 -27 -22 -14 -21 -8 -63 12 -81 17 -15 24
-16 45 -7 36 17 39 34 15 81 -11 23 -21 41 -23 41 -1 0 -11 -6 -22 -12z"/>
<path d="M2028 923 c-26 -31 -29 -52 -8 -73 33 -33 58 -25 82 26 19 39 20 46
8 54 -24 15 -66 11 -82 -7z"/>
<path d="M2575 851 c-32 -14 -55 -46 -61 -83 -9 -53 27 -89 95 -96 66 -6 98
10 112 57 19 65 -16 113 -91 125 -19 3 -44 2 -55 -3z"/>
<path d="M3285 759 c-4 -6 -5 -12 -4 -13 8 -7 69 7 69 15 0 13 -57 11 -65 -2z"/>
</g>
</svg>
