<?xml version="1.0" encoding="UTF-8"?>
<svg version="1.1" xmlns="http://www.w3.org/2000/svg" width="747" height="746">
<path d="M0 0 C246.51 0 493.02 0 747 0 C747 246.18 747 492.36 747 746 C500.49 746 253.98 746 0 746 C0 499.82 0 253.64 0 0 Z " fill="#FEFEFE" transform="translate(0,0)"/>
<path d="M0 0 C17.60945558 10.87408042 35.40091919 24.13279288 48.74560547 40.02539062 C50.60661826 42.19852297 52.54434474 44.28625697 54.50268555 46.37158203 C60.67300231 52.96981785 66.28764248 59.9023145 71.60888672 67.20117188 C72.14416992 67.93368164 72.67945313 68.66619141 73.23095703 69.42089844 C92.60082682 96.09685125 109.60888672 124.25839533 109.60888672 158.20117188 C110.26888672 158.53117188 110.92888672 158.86117187 111.60888672 159.20117188 C111.56763672 160.31492187 111.52638672 161.42867187 111.48388672 162.57617188 C111.19766813 166.24483212 111.19766813 166.24483212 113.60888672 168.20117188 C114.6989532 173.54249761 114.7195382 178.77924913 114.60888672 184.20117188 C114.27888672 184.20117188 113.94888672 184.20117188 113.60888672 184.20117188 C113.60888672 181.89117187 113.60888672 179.58117187 113.60888672 177.20117188 C112.37663727 178.20507951 112.37663727 178.20507951 112.54638672 180.23242188 C112.57732422 181.45445312 112.57732422 181.45445312 112.60888672 182.70117188 C112.64684924 184.20069141 112.65501873 185.70188143 112.60888672 187.20117188 C112.27888672 187.53117188 111.94888672 187.86117187 111.60888672 188.20117188 C111.5366217 190.05404689 111.52507452 191.90951065 111.54638672 193.76367188 C111.55541016 194.77558594 111.56443359 195.7875 111.57373047 196.83007812 C111.58533203 197.61253906 111.59693359 198.395 111.60888672 199.20117188 C112.59888672 198.54117188 113.58888672 197.88117188 114.60888672 197.20117188 C114.60888672 199.51117188 114.60888672 201.82117188 114.60888672 204.20117188 C112.55810547 204.42903646 110.50732422 204.65690104 108.45654297 204.88476562 C106.59748443 205.02003802 106.59748443 205.02003802 105.60888672 206.20117188 C106.26888672 206.53117188 106.92888672 206.86117187 107.60888672 207.20117188 C109.73243763 211.25026819 109.84268668 214.72967699 109.80419922 219.25195312 C109.80136932 219.91075974 109.79853943 220.56956635 109.79562378 221.24833679 C109.78449596 223.33697249 109.7594062 225.42516744 109.73388672 227.51367188 C109.72384731 228.93619169 109.71472314 230.35871828 109.70654297 231.78125 C109.68458119 235.25469869 109.65010318 238.7278922 109.60888672 242.20117188 C108.28888672 241.54117187 106.96888672 240.88117188 105.60888672 240.20117188 C105.93888672 238.88117188 106.26888672 237.56117188 106.60888672 236.20117188 C105.94888672 236.20117188 105.28888672 236.20117188 104.60888672 236.20117188 C104.60888672 240.49117188 104.60888672 244.78117187 104.60888672 249.20117188 C106.25888672 249.20117188 107.90888672 249.20117188 109.60888672 249.20117188 C109.60888672 249.86117188 109.60888672 250.52117187 109.60888672 251.20117188 C110.26888672 251.20117188 110.92888672 251.20117188 111.60888672 251.20117188 C111.83746546 257.37279794 111.39963519 263.25411829 109.60888672 269.20117188 C108.94888672 269.86117188 108.28888672 270.52117187 107.60888672 271.20117188 C104.88019264 271.16829604 102.31222492 270.63719417 99.60888672 270.20117188 C99.91686998 271.68128558 100.23040471 273.16024513 100.54638672 274.63867188 C100.72041016 275.46238281 100.89443359 276.28609375 101.07373047 277.13476562 C101.41641665 279.17778391 101.41641665 279.17778391 102.60888672 280.20117188 C102.32158617 282.54061923 101.98951892 284.87508618 101.60888672 287.20117188 C102.26888672 287.20117188 102.92888672 287.20117188 103.60888672 287.20117188 C103.08564069 291.38714008 101.51829889 294.57524118 99.54638672 298.23632812 C98.52582079 300.1799158 98.52582079 300.1799158 98.14404297 302.36914062 C97.96744141 302.97371094 97.79083984 303.57828125 97.60888672 304.20117188 C95.04638672 305.45117187 95.04638672 305.45117187 92.60888672 306.20117188 C92.48513672 305.39679688 92.36138672 304.59242188 92.23388672 303.76367188 C92.02763672 302.91804688 91.82138672 302.07242187 91.60888672 301.20117188 C90.94888672 300.87117188 90.28888672 300.54117187 89.60888672 300.20117188 C89.77388672 300.71679688 89.93888672 301.23242188 90.10888672 301.76367188 C90.78111411 305.0407804 90.91216862 307.865071 90.60888672 311.20117188 C88.73388672 313.13867188 88.73388672 313.13867188 86.60888672 314.20117188 C85.94888672 314.20117188 85.28888672 314.20117188 84.60888672 314.20117188 C84.60888672 317.17117188 84.60888672 320.14117187 84.60888672 323.20117188 C85.59888672 323.53117187 86.58888672 323.86117188 87.60888672 324.20117188 C86.33167146 329.19392245 84.43557715 331.77729096 80.60888672 335.20117188 C80.27888672 334.54117187 79.94888672 333.88117188 79.60888672 333.20117188 C78.94888672 334.19117188 78.28888672 335.18117188 77.60888672 336.20117188 C76.61888672 335.87117188 75.62888672 335.54117187 74.60888672 335.20117188 C74.27888672 336.52117187 73.94888672 337.84117187 73.60888672 339.20117188 C74.59888672 339.53117187 75.58888672 339.86117188 76.60888672 340.20117188 C76.38990965 345.56610998 75.22236529 348.73175545 71.55419922 352.70117188 C68.61083598 354.97075317 65.52875222 355.71261856 61.95654297 356.58007812 C59.15856962 357.32030735 56.97271614 358.54649128 54.60888672 360.20117188 C54.93888672 361.85117187 55.26888672 363.50117187 55.60888672 365.20117188 C50.85888672 366.32617188 50.85888672 366.32617188 48.60888672 365.20117188 C48.27888672 365.86117188 47.94888672 366.52117187 47.60888672 367.20117188 C45.95888672 367.20117188 44.30888672 367.20117188 42.60888672 367.20117188 C42.27888672 368.52117187 41.94888672 369.84117187 41.60888672 371.20117188 C39.95888672 371.20117188 38.30888672 371.20117188 36.60888672 371.20117188 C36.93888672 372.52117187 37.26888672 373.84117187 37.60888672 375.20117188 C35.95888672 375.86117188 34.30888672 376.52117187 32.60888672 377.20117188 C32.60888672 378.52117187 32.60888672 379.84117187 32.60888672 381.20117188 C31.28888672 381.86117188 29.96888672 382.52117187 28.60888672 383.20117188 C30.25888672 383.86117188 31.90888672 384.52117187 33.60888672 385.20117188 C32.94888672 385.86117188 32.28888672 386.52117187 31.60888672 387.20117188 C30.61888672 387.20117188 29.62888672 387.20117188 28.60888672 387.20117188 C28.42326172 388.40773438 28.42326172 388.40773438 28.23388672 389.63867188 C28.02763672 390.48429687 27.82138672 391.32992188 27.60888672 392.20117188 C26.94888672 392.53117187 26.28888672 392.86117188 25.60888672 393.20117188 C24.61888672 392.87117188 23.62888672 392.54117187 22.60888672 392.20117188 C22.77388672 393.29429687 22.93888672 394.38742187 23.10888672 395.51367188 C23.60888672 399.20117188 23.60888672 399.20117188 23.60888672 402.20117188 C21.62315386 403.89623505 19.69264905 405.35913878 17.54638672 406.82617188 C16.91514893 407.26566162 16.28391113 407.70515137 15.63354492 408.15795898 C8.8202931 412.84170166 1.79522192 417.11823037 -5.39111328 421.20117188 C-6.37072021 421.76384766 -6.37072021 421.76384766 -7.37011719 422.33789062 C-22.81079536 431.13326113 -39.31499823 437.36293928 -56.39111328 442.20117188 C-57.23673828 442.46414063 -58.08236328 442.72710938 -58.95361328 442.99804688 C-75.58356263 447.96675125 -92.14449876 448.65484648 -109.39111328 448.20117188 C-109.08593436 444.22140771 -108.77074992 440.2424996 -108.45361328 436.26367188 C-108.36660156 435.12736328 -108.27958984 433.99105469 -108.18994141 432.8203125 C-108.10292969 431.74072266 -108.01591797 430.66113281 -107.92626953 429.54882812 C-107.80844116 428.04848022 -107.80844116 428.04848022 -107.68823242 426.51782227 C-107.39111328 424.20117188 -107.39111328 424.20117188 -106.39111328 423.20117188 C-104.70015726 422.97329912 -103.00128672 422.8038048 -101.30126953 422.65820312 C-76.60680831 420.35821978 -53.9691183 415.63191957 -31.39111328 405.20117188 C-30.28219727 404.69432861 -30.28219727 404.69432861 -29.15087891 404.17724609 C-13.06730849 396.73952125 1.16763313 387.29869862 14.6640625 375.84912109 C16.59226024 374.21526035 18.53459355 372.59966018 20.47998047 370.98632812 C26.72527176 365.77186844 32.53012003 360.58777548 37.60888672 354.20117188 C38.50611195 353.12463953 39.40467893 352.04922477 40.30419922 350.97460938 C57.42561447 330.31131281 69.77971926 307.49747796 78.60888672 282.20117188 C78.86009277 281.49927734 79.11129883 280.79738281 79.37011719 280.07421875 C83.24840549 269.14718854 85.31918232 258.02770832 87.20654297 246.61376953 C87.54201393 244.60216513 87.90070215 242.59444999 88.26513672 240.58789062 C90.45432297 228.43468757 90.79550988 216.24160797 90.79418945 203.92602539 C90.79638737 201.63799726 90.81466024 199.35044426 90.83349609 197.0625 C90.86620342 188.55026046 90.29294563 180.57475192 88.60888672 172.20117188 C88.35202433 170.62826468 88.10279787 169.05408313 87.86279297 167.47851562 C86.00306683 155.70377732 83.49431439 145.06248626 78.74951172 134.07226562 C76.83246568 129.24682439 75.60888672 124.42244214 75.60888672 119.20117188 C74.61888672 118.87117187 73.62888672 118.54117188 72.60888672 118.20117188 C71.28168585 115.84103639 70.11632119 113.52760614 68.98388672 111.07617188 C60.00240777 92.44033444 48.38604137 73.77923312 33.60888672 59.20117188 C32.81611328 58.37359375 32.02333984 57.54601562 31.20654297 56.69335938 C24.74739797 50.02521277 17.93986838 44.165259 10.50097656 38.61474609 C9.23769648 37.67095362 7.98018022 36.71939756 6.72851562 35.76025391 C-27.09407083 9.91624031 -68.30871477 -3.47411444 -110.66455078 -4.62304688 C-114.39111328 -4.79882812 -114.39111328 -4.79882812 -116.39111328 -5.79882812 C-116.33931564 -9.23756629 -116.24426223 -12.6737772 -116.14111328 -16.11132812 C-116.12693359 -17.08779297 -116.11275391 -18.06425781 -116.09814453 -19.0703125 C-116.06591797 -20.00810547 -116.03369141 -20.94589844 -116.00048828 -21.91210938 C-115.97954102 -22.77618408 -115.95859375 -23.64025879 -115.93701172 -24.53051758 C-115.39111328 -26.79882812 -115.39111328 -26.79882812 -113.50830078 -28.53222656 C-81.99240491 -47.38652405 -27.03978073 -16.36634898 0 0 Z " fill="#030303" transform="translate(482.39111328125,160.798828125)"/>
<path d="M0 0 C7.01245716 3.59054884 13.16306474 7.9235991 19.375 12.75 C20.75764038 13.81516846 20.75764038 13.81516846 22.16821289 14.90185547 C41.31178719 29.69684526 41.31178719 29.69684526 47 36 C47 36.66 47 37.32 47 38 C47.85271484 38.28423828 47.85271484 38.28423828 48.72265625 38.57421875 C51.99085368 40.62034579 53.54713974 43.55289488 55.4375 46.8125 C56.02736694 47.81748535 56.02736694 47.81748535 56.62915039 48.84277344 C66.61890771 66.29547924 69.7936096 85.05436543 64.97045898 104.65161133 C59.00220699 126.25604313 42.56735101 140.91230746 25.18798828 154.03955078 C20.70761173 157.42638503 16.34507348 160.94169092 12 164.5 C6.22507062 169.21978243 0.38965193 173.83077387 -5.54296875 178.3515625 C-8.10371696 180.3049682 -10.64330824 182.28351425 -13.17578125 184.2734375 C-22.86503796 191.88081051 -32.70492878 199.21881864 -42.73242188 206.37353516 C-45.04458969 208.03198283 -47.34407235 209.70672589 -49.640625 211.38671875 C-54.0700682 214.6248783 -58.52313379 217.82774204 -63 221 C-63.62358398 221.4439209 -64.24716797 221.8878418 -64.88964844 222.34521484 C-80.06644907 233.03024551 -96.28191137 238.79147372 -115 237 C-139.44587743 232.7282367 -165.33154027 214.80286915 -179.9375 195.0625 C-190.95174263 177.88682461 -193.63747036 160.38356585 -193.390625 140.40234375 C-193.3831399 138.58818698 -193.37745775 136.77402197 -193.37347412 134.95985413 C-193.35839595 130.24653742 -193.3192742 125.53373492 -193.2746582 120.82061768 C-193.23331472 115.98660228 -193.21538074 111.15250162 -193.1953125 106.31835938 C-193.15275745 96.87868363 -193.0847301 87.43938501 -193 78 C-189.39679975 79.69696353 -186.96064632 81.74567147 -184.0625 84.5 C-178.80211518 89.37703694 -173.28187231 93.75417298 -167.5546875 98.06640625 C-165 100 -165 100 -164 101 C-163.01 90.44 -162.02 79.88 -161 69 C-160.67 69 -160.34 69 -160 69 C-159.97573944 70.83924042 -159.97573944 70.83924042 -159.95098877 72.71563721 C-159.79557189 84.30857439 -159.61997233 95.90105635 -159.42494583 107.49339676 C-159.32533605 113.45221006 -159.23267575 119.41095786 -159.15625 125.37011719 C-159.08214154 131.12818953 -158.98931773 136.88569168 -158.88387299 142.6432724 C-158.84699757 144.83262818 -158.81670438 147.02210569 -158.79331207 149.21164703 C-158.94301061 169.85344511 -158.94301061 169.85344511 -148.890625 187.203125 C-148.26671875 187.79609375 -147.6428125 188.3890625 -147 189 C-146.43796875 189.59296875 -145.8759375 190.1859375 -145.296875 190.796875 C-136.7546585 199.19053122 -122.8002211 205.22181416 -110.9375 205.4375 C-95.35112512 205.28858559 -85.20743819 197.02790425 -73.40332031 187.86523438 C-71.10006183 186.07765872 -68.78371526 184.30898227 -66.4609375 182.546875 C-62.29378906 179.38199921 -58.14473388 176.19414587 -54 173 C-52.88290662 172.14050266 -51.76572466 171.28112043 -50.6484375 170.421875 C-48.54658454 168.80506503 -46.44502277 167.18787644 -44.34375 165.5703125 C-40.56733558 162.66555249 -36.78422868 159.76956918 -33 156.875 C-32.29431885 156.33488281 -31.5886377 155.79476562 -30.86157227 155.23828125 C-26.85183729 152.17172559 -22.83449801 149.11561459 -18.80859375 146.0703125 C-9.88885578 139.31500648 -1.04999285 132.49988828 7.5859375 125.38427734 C11.32004705 122.31987222 15.11800496 119.41879431 19.0625 116.625 C27.52014333 110.53854003 33.97555937 104.04517963 36.6015625 93.609375 C38.04399717 84.16284205 38.0772799 76.51540932 32.31640625 68.58984375 C28.02388502 63.79061681 23.09680471 59.90711687 18 56 C16.22646633 54.58671536 14.45543742 53.17027899 12.6875 51.75 C11.48867188 50.79480469 11.48867188 50.79480469 10.265625 49.8203125 C1.31412104 42.62824207 1.31412104 42.62824207 0 40 C-0.08705146 37.01029711 -0.11550145 34.04415045 -0.09765625 31.0546875 C-0.09553383 29.72716965 -0.09553383 29.72716965 -0.09336853 28.37283325 C-0.0877614 25.54018809 -0.07520771 22.70762136 -0.0625 19.875 C-0.05748592 17.95703239 -0.05292285 16.03906354 -0.04882812 14.12109375 C-0.03778966 9.41403218 -0.02052025 4.7070294 0 0 Z " fill="#020202" transform="translate(469,315)"/>
<path d="M0 0 C3.88551457 2.68982632 7.65271753 5.52054724 11.37988281 8.42480469 C12.78656766 9.51746682 14.21261708 10.58510493 15.64160156 11.6484375 C33.35882158 24.93635251 39.47003237 41.46800699 42.98535156 62.671875 C43.24831276 64.03440903 43.24831276 64.03440903 43.5165863 65.42446899 C44.04409994 69.0788587 44.11808748 72.64762517 44.09887695 76.32958984 C44.09902298 77.07173737 44.09916901 77.81388489 44.09931946 78.57852173 C44.09862695 81.01331583 44.09086575 83.44803189 44.08300781 85.8828125 C44.08114128 87.57817544 44.07971849 89.27353892 44.07872009 90.96890259 C44.07491345 95.41747544 44.06509907 99.86601532 44.05401611 104.3145752 C44.04376207 108.85945184 44.03921393 113.40433385 44.03417969 117.94921875 C44.02347506 126.85678527 44.006421 135.76432739 43.98535156 144.671875 C43.32535156 145.001875 42.66535156 145.331875 41.98535156 145.671875 C41.96553223 144.83116455 41.94571289 143.9904541 41.92529297 143.12426758 C41.84616527 139.93883124 41.75945377 136.75370711 41.66796875 133.56860352 C41.63020286 132.20247056 41.59526989 130.8362557 41.56347656 129.4699707 C41.34965839 120.38603947 40.60973438 111.61552449 38.98535156 102.671875 C35.37542777 103.32772689 35.37542777 103.32772689 31.98535156 104.671875 C28.41586427 104.95053386 24.84653477 105.11915979 21.27050781 105.29296875 C17.8469734 105.43500229 17.8469734 105.43500229 14.98535156 107.671875 C13.79302543 109.72191455 13.79302543 109.72191455 12.98535156 111.671875 C12.65535156 111.671875 12.32535156 111.671875 11.98535156 111.671875 C11.96029541 110.52412598 11.93523926 109.37637695 11.90942383 108.19384766 C11.81364878 103.84367893 11.71387859 99.49360867 11.61303711 95.14355469 C11.57031857 93.27801858 11.52861488 91.4124589 11.48803711 89.546875 C11.27797621 79.92038038 11.03154896 70.29466025 10.58691406 60.67578125 C10.55976822 59.94843781 10.53262238 59.22109436 10.50465393 58.47171021 C10.1850579 52.28023969 8.53785338 47.69973276 4.98535156 42.671875 C4.57542969 42.06601563 4.16550781 41.46015625 3.74316406 40.8359375 C-4.96363799 29.45011943 -19.31261123 21.97823615 -33.01464844 18.671875 C-49.07077285 17.08793749 -59.44768748 21.82722801 -72.01464844 31.671875 C-74.05103365 33.24000607 -76.0911999 34.80312796 -78.13183594 36.36572266 C-79.60180416 37.49141229 -81.07054524 38.61870607 -82.53808594 39.74755859 C-87.02942802 43.19271262 -91.57354385 46.5389787 -96.20214844 49.796875 C-102.76008769 54.41885672 -109.04415099 59.34819284 -115.32519531 64.33691406 C-122.25300388 69.81108419 -129.30473494 75.13068469 -136.3190918 80.49316406 C-137.7823854 81.61199058 -139.24543899 82.73113108 -140.70825195 83.85058594 C-143.97744116 86.35213665 -147.24842991 88.85100546 -150.53027344 91.3359375 C-156.76144994 96.06974257 -162.81295579 100.94166683 -168.703125 106.09423828 C-171.36332186 108.39629916 -173.85800872 110.14723949 -177.01464844 111.671875 C-178.07236582 113.30252264 -179.06737889 114.97468373 -180.01464844 116.671875 C-180.67464844 117.455625 -181.33464844 118.239375 -182.01464844 119.046875 C-188.63827353 127.74038293 -188.28237397 138.22118334 -187.01464844 148.671875 C-184.45809476 158.05593085 -178.51598093 163.85041838 -171.01464844 169.671875 C-169.54898438 170.81462891 -169.54898438 170.81462891 -168.05371094 171.98046875 C-162.54020667 176.18292123 -156.92463149 180.15272321 -151.07324219 183.87109375 C-147.64687604 186.86835142 -146.19867212 189.71728454 -145.76831055 194.28833008 C-145.68176498 197.44298046 -145.7030699 200.57917452 -145.76464844 203.734375 C-145.78108398 205.40487915 -145.78108398 205.40487915 -145.79785156 207.10913086 C-145.8992758 214.65917304 -146.17870837 222.16334188 -147.01464844 229.671875 C-152.42308115 229.31824671 -155.55975636 226.1518784 -159.51464844 222.796875 C-160.21589844 222.21405762 -160.91714844 221.63124023 -161.63964844 221.03076172 C-163.7726374 219.25375393 -165.89441596 217.46407151 -168.01464844 215.671875 C-169.23305804 214.65063541 -170.45178699 213.62977665 -171.67089844 212.609375 C-174.80150028 209.982042 -177.9088338 207.32844802 -181.01464844 204.671875 C-181.70429688 204.09566406 -182.39394531 203.51945313 -183.10449219 202.92578125 C-192.93721384 194.58979524 -203.48907789 185.50957417 -209.01464844 173.671875 C-209.3871875 172.87523437 -209.75972656 172.07859375 -210.14355469 171.2578125 C-214.85957259 160.29437605 -216.5237667 149.61649633 -216.45214844 137.734375 C-216.48211914 135.97577148 -216.48211914 135.97577148 -216.51269531 134.18164062 C-216.50254339 115.79650738 -208.57762097 99.26477611 -195.76855469 86.35546875 C-194.40537109 85.02708984 -194.40537109 85.02708984 -193.01464844 83.671875 C-191.91443359 82.57552734 -191.91443359 82.57552734 -190.79199219 81.45703125 C-183.72895567 74.76770037 -175.77572116 69.15733377 -167.97558594 63.37109375 C-163.89833752 60.34292119 -159.87180713 57.2612539 -155.88964844 54.109375 C-155.34236084 53.67681396 -154.79507324 53.24425293 -154.23120117 52.79858398 C-153.09903724 51.90314375 -151.96712469 51.0073856 -150.83544922 50.11132812 C-140.21732529 41.71705906 -129.49340556 33.49754243 -118.56762695 25.50732422 C-114.56677192 22.57516511 -110.61472696 19.61415737 -106.76464844 16.484375 C-74.19364718 -9.8879928 -38.30662999 -25.2530377 0 0 Z " fill="#020202" transform="translate(417.0146484375,201.328125)"/>
<path d="M0 0 C-0.103125 0.886875 -0.20625 1.77375 -0.3125 2.6875 C-0.36581007 7.87990039 1.9346302 12.39939436 3.90625 17.109375 C5 20 5 20 5 23 C3.61401367 24.29931641 3.61401367 24.29931641 1.66796875 25.6015625 C0.6018335 26.3296814 0.6018335 26.3296814 -0.48583984 27.07250977 C-1.2536377 27.58483154 -2.02143555 28.09715332 -2.8125 28.625 C-4.38612124 29.70672204 -5.95773691 30.79136739 -7.52734375 31.87890625 C-8.29675293 32.4114502 -9.06616211 32.94399414 -9.85888672 33.49267578 C-17.84124759 39.11218502 -24.77577478 45.57999089 -31.4921875 52.6171875 C-34 55 -34 55 -36.6328125 56.5078125 C-39.49032237 58.3090811 -40.33405115 60.09326633 -42 63 C-43.62661913 64.66508648 -45.2981243 66.2869125 -47 67.875 C-83.26524402 103.06737954 -95.52157644 156.7324972 -99.69042969 205.16699219 C-99.98102757 207.82637534 -100.43053127 210.38763714 -101 213 C-101.89203125 213.24234375 -102.7840625 213.4846875 -103.703125 213.734375 C-104.87359375 214.06953125 -106.0440625 214.4046875 -107.25 214.75 C-108.41015625 215.07484375 -109.5703125 215.3996875 -110.765625 215.734375 C-114.12788951 217.05004372 -115.67775764 218.29426808 -118 221 C-118.99 221.99 -118.99 221.99 -120 223 C-120.71927295 225.31765729 -121.3909893 227.65095874 -122 230 C-122.33 230 -122.66 230 -123 230 C-129.09925108 182.23089489 -117.76455625 134.06646674 -95 92 C-94.38898438 90.85015625 -93.77796875 89.7003125 -93.1484375 88.515625 C-79.0075051 62.79425825 -59.23395243 38.92593458 -36 21 C-35.44860352 20.57219238 -34.89720703 20.14438477 -34.32910156 19.70361328 C-27.09191398 14.12402696 -19.65984671 9.00016391 -11.8125 4.3125 C-10.73427979 3.66099976 -10.73427979 3.66099976 -9.63427734 2.99633789 C-8.95703613 2.6018042 -8.27979492 2.20727051 -7.58203125 1.80078125 C-6.98624268 1.45184814 -6.3904541 1.10291504 -5.77661133 0.7434082 C-4 0 -4 0 0 0 Z " fill="#030303" transform="translate(270,160)"/>
<path d="M0 0 C0.91136719 0.47308594 1.82273437 0.94617188 2.76171875 1.43359375 C31.03835942 15.94148268 59.04139943 25.37951472 90.7265625 28.60546875 C94 29 94 29 97 30 C97 30.66 97 31.32 97 32 C96.01 32 95.02 32 94 32 C94.99 42.395 94.99 42.395 96 53 C94.35 53 92.7 53 91 53 C91.33 51.35 91.66 49.7 92 48 C91.01 48.495 91.01 48.495 90 49 C89.67 49.99 89.34 50.98 89 52 C86.95901391 52.08176057 84.91705977 52.13953215 82.875 52.1875 C81.16957031 52.23970703 81.16957031 52.23970703 79.4296875 52.29296875 C75.60090394 51.96590865 73.40587652 50.70514129 70 49 C66.52913076 48.60853815 66.52913076 48.60853815 62.8125 48.625 C38.94985144 47.66771933 13.34406618 36.59312759 -6 23 C-5.13658981 16.36333961 -4.30488954 12.48875269 1 8 C1.33 7.01 1.66 6.02 2 5 C1.01 4.34 0.02 3.68 -1 3 C-0.67 2.01 -0.34 1.02 0 0 Z " fill="#030303" transform="translate(269,555)"/>
<path d="M0 0 C0.66 0 1.32 0 2 0 C-1.07088996 9.41853958 -10.28680973 16.76505282 -17.9375 22.6875 C-18.48059814 23.10926514 -19.02369629 23.53103027 -19.58325195 23.96557617 C-22.30527569 25.99724691 -24.60059402 27.51671096 -28 28 C-25.41549009 24.573611 -22.86890724 21.9414891 -19.4375 19.375 C-12.88136937 14.2584945 -6.21283238 8.42228199 -1.30859375 1.671875 C-0.66083984 0.84429687 -0.66083984 0.84429687 0 0 Z " fill="#171717" transform="translate(454,377)"/>
<path d="M0 0 C0.845625 0.495 1.69125 0.99 2.5625 1.5 C-0.30317358 2.34623918 -2.53716531 2.49367239 -5.5 2.25 C-10.74207054 2.13679914 -14.57033437 4.12590138 -19.15234375 6.50390625 C-19.90644531 6.83261719 -20.66054688 7.16132813 -21.4375 7.5 C-22.0975 7.17 -22.7575 6.84 -23.4375 6.5 C-16.53042422 0.26678527 -9.28829751 -4.05307528 0 0 Z " fill="#2D2D2D" transform="translate(381.4375,286.5)"/>
<path d="M0 0 C0.99 0.33 1.98 0.66 3 1 C-2.99317721 6.6303335 -8.99050468 11.68255723 -16 16 C-16.66 15.67 -17.32 15.34 -18 15 C-15.75131288 13.0609583 -13.50111139 11.12372378 -11.25 9.1875 C-10.61578125 8.64029297 -9.9815625 8.09308594 -9.328125 7.52929688 C-7.56004983 6.00985727 -5.78152207 4.50362596 -4 3 C-3.25234375 2.35675781 -2.5046875 1.71351563 -1.734375 1.05078125 C-1.16203125 0.70402344 -0.5896875 0.35726563 0 0 Z " fill="#171717" transform="translate(418,409)"/>
<path d="M0 0 C-2.15341406 2.34917898 -4.21667937 3.82443004 -7.0625 5.25 C-7.75472656 5.60578125 -8.44695312 5.9615625 -9.16015625 6.328125 C-9.76730469 6.54984375 -10.37445313 6.7715625 -11 7 C-11.66 6.67 -12.32 6.34 -13 6 C-4.36708861 -1.4556962 -4.36708861 -1.4556962 0 0 Z " fill="#1E1E1E" transform="translate(371,287)"/>
<path d="M0 0 C0.99 0.33 1.98 0.66 3 1 C-0.08632611 4.2626876 -2.93483504 7.02235218 -7 9 C-7.66 8.67 -8.32 8.34 -9 8 C-6.03 5.36 -3.06 2.72 0 0 Z " fill="#282828" transform="translate(435,396)"/>
<path d="M0 0 C-1.4258086 3.45195767 -3.09746334 5.1014256 -6.125 7.25 C-7.21167969 8.03117187 -7.21167969 8.03117187 -8.3203125 8.828125 C-8.87460937 9.21484375 -9.42890625 9.6015625 -10 10 C-10.66 9.67 -11.32 9.34 -12 9 C-10.38050958 7.49405319 -8.75424026 5.99539332 -7.125 4.5 C-6.22007812 3.6646875 -5.31515625 2.829375 -4.3828125 1.96875 C-2 0 -2 0 0 0 Z " fill="#1F1F1F" transform="translate(409,370)"/>
<path d="M0 0 C0.33 0 0.66 0 1 0 C1.25 2.75 1.25 2.75 1 6 C-1 8.375 -1 8.375 -3 10 C-3 9.34 -3 8.68 -3 8 C-3.66 8 -4.32 8 -5 8 C-5 7.34 -5 6.68 -5 6 C-4.34 6 -3.68 6 -3 6 C-3 4.68 -3 3.36 -3 2 C-2.01 2 -1.02 2 0 2 C0 1.34 0 0.68 0 0 Z " fill="#4D4D4D" transform="translate(574,472)"/>
<path d="M0 0 C0.99 0.33 1.98 0.66 3 1 C-0.02272532 4.25524265 -3.25718301 6.61820737 -7 9 C-7.66 8.67 -8.32 8.34 -9 8 C-6.03 5.36 -3.06 2.72 0 0 Z " fill="#2F2F2F" transform="translate(409,416)"/>
</svg>
